<?xml version="1.0" standalone="no"?>
<!DOCTYPE svg PUBLIC "-//W3C//DTD SVG 1.1//EN" "http://www.w3.org/Graphics/SVG/1.1/DTD/svg11.dtd" >
<svg xmlns="http://www.w3.org/2000/svg" xmlns:xlink="http://www.w3.org/1999/xlink" version="1.1">
<metadata></metadata>
<defs>
<font id="brothersroman" horiz-adv-x="1228" >
<font-face units-per-em="2048" ascent="1638" descent="-410" />
<missing-glyph horiz-adv-x="512" />
<glyph horiz-adv-x="0" />
<glyph horiz-adv-x="682" />
<glyph unicode=" "  horiz-adv-x="512" />
<glyph unicode="&#x09;" horiz-adv-x="512" />
<glyph unicode="&#xa0;" horiz-adv-x="512" />
<glyph unicode="!" horiz-adv-x="696" d="M184 82l82 -82h164l82 82v164l-82 82h-164l-82 -82v-164zM184 973l103 -512h123l102 512v379l-82 82h-164l-82 -82v-379z" />
<glyph unicode="&#x22;" horiz-adv-x="1105" d="M102 1270l82 -82h113v-51l-51 -103l-103 -51l-30 -61h82l184 92l92 184v256l-82 82h-205l-82 -82v-184zM635 1270l82 -82h112v-51l-51 -103l-102 -51l-31 -61h82l184 92l93 184v256l-82 82h-205l-82 -82v-184z" />
<glyph unicode="#" horiz-adv-x="1146" d="M51 369h205l-102 -349h102l102 349h226l-103 -349h103l102 349h205l61 215h-204l81 266h205l62 215h-205l102 348h-102l-103 -348h-225l103 348h-103l-102 -348h-205l-61 -215h204l-82 -266h-204zM420 584l82 266h225l-82 -266h-225z" />
<glyph unicode="$" horiz-adv-x="1187" d="M102 338l105 -318h186l-45 -225h123l45 225h272l267 267v348l-174 174l-185 61l62 318h92l184 -62l-96 287h-139l41 205h-123l-41 -205h-256l-266 -266v-287l174 -174l180 -61l-68 -359h-127zM440 973v92l41 82l82 41h72l-57 -297h-56zM563 266l62 328h61l82 -82v-123 l-41 -82l-82 -41h-82z" />
<glyph unicode="%" horiz-adv-x="2068" d="M164 676l184 -184h328l184 184v594l62 -41h204l154 102l-666 -1331h123l717 1434h-82l-246 -123h-204l-246 123h-328l-184 -185v-573zM389 727v471l31 62l61 30h62l61 -30l31 -62v-471l-31 -61l-61 -31h-62l-61 31zM1208 184l185 -184h327l185 184v574l-185 184h-327 l-185 -184v-574zM1434 236v471l30 61l62 31h61l62 -31l30 -61v-471l-30 -62l-62 -31h-61l-62 31z" />
<glyph unicode="&#x26;" horiz-adv-x="1310" d="M82 246l246 -246h368l123 123l123 -123h318l-205 205l-62 123l297 450l-20 21h-287l-31 -144l-61 -123l-328 656l21 20h286l205 -71l-102 297h-533l-204 -205l153 -307l-307 -308v-368zM389 369v163l41 82l82 82l195 -389l-31 -31l-62 -30h-102l-82 41z" />
<glyph unicode="'" horiz-adv-x="593" d="M102 1249l82 -82h113v-51l-51 -102l-103 -51l-30 -62h102l184 92l93 185v276l-82 82h-226l-82 -82v-205z" />
<glyph unicode="(" horiz-adv-x="696" d="M123 225l184 -368l369 -246h102v61l-123 62l-123 123l-122 245v1086l122 246l123 122l123 62v61h-102l-369 -245l-184 -369v-840z" />
<glyph unicode=")" horiz-adv-x="696" d="M-123 -328v-61h103l368 246l184 368v840l-184 369l-368 245h-103v-61l123 -62l123 -122l123 -246v-1086l-123 -245l-123 -123z" />
<glyph unicode="*" horiz-adv-x="983" d="M51 1118l273 -16l45 -78l-123 -246l61 -41l185 277l184 -277l61 41l-123 246l45 78l273 16v74l-326 20l148 299l-66 33l-151 -229h-91l-151 229l-66 -33l148 -297l-326 -22v-74z" />
<glyph unicode="+" horiz-adv-x="1392" d="M82 614h491v-512h236v512h502v226h-502v491h-236v-491h-491v-226z" />
<glyph unicode="," horiz-adv-x="593" d="M102 82l82 -82h113v-51l-51 -103l-103 -51l-30 -61h102l184 92l93 184v277l-82 82h-226l-82 -82v-205z" />
<glyph unicode="-" horiz-adv-x="737" d="M82 573h573v226h-573v-226z" />
<glyph unicode="." horiz-adv-x="593" d="M102 82l82 -82h226l82 82v225l-82 82h-226l-82 -82v-225z" />
<glyph unicode="/" horiz-adv-x="716" d="M20 -82h144l532 1598h-143z" />
<glyph unicode="0" horiz-adv-x="1392" d="M205 266l266 -266h451l266 266v901l-266 267h-451l-266 -267v-901zM512 369v716l41 82l82 41h123l82 -41l41 -82v-716l-41 -82l-82 -41h-123l-82 41z" />
<glyph unicode="1" horiz-adv-x="737" d="M82 1147h164v-963l-62 -184h410l-62 184v1250h-307z" />
<glyph unicode="2" horiz-adv-x="1187" d="M31 266l133 -266h805l116 348l-215 -72h-430l-51 -10l615 615v307l-246 246h-574l-106 -318l213 72h252l102 -51l51 -103v-51l-51 -102z" />
<glyph unicode="3" horiz-adv-x="1187" d="M57 317l107 -317h594l246 246v358l-175 174l154 154v276l-225 226h-563l-103 -308l246 82h225l82 -41l41 -82v-81l-41 -82l-82 -41h-235v-226h215l102 -51l51 -102v-103l-51 -102l-102 -51h-273z" />
<glyph unicode="4" d="M0 614l143 -286h502l21 -21v-143l-41 -164h358l-41 164v143l21 21h163l82 245h-245l-21 21v676l41 164h-348zM307 635l318 430l51 92l-10 -92v-471l-21 -21h-307z" />
<glyph unicode="5" horiz-adv-x="1249" d="M139 317l107 -317h573l287 287v409l-225 226h-287l-123 -62v287l21 20h501l133 267h-921v-768l225 -113l41 82l82 41h123l82 -41l41 -82v-154l-51 -102l-103 -51h-293z" />
<glyph unicode="6" horiz-adv-x="1351" d="M205 266l266 -266h451l266 266v430l-225 226h-328l-123 -62v195l51 102l103 51h225l246 -82l-103 308h-542l-287 -287v-881zM512 369v204l41 82l82 41h123l82 -41l41 -82v-204l-41 -82l-82 -41h-123l-82 41z" />
<glyph unicode="7" horiz-adv-x="1064" d="M-10 1096l215 71h471l20 -20l-614 -1147h399l31 205l512 1024l-102 205h-820z" />
<glyph unicode="8" horiz-adv-x="1392" d="M184 246l246 -246h533l245 246v338l-174 174l154 153v277l-246 246h-491l-246 -246v-277l153 -153l-174 -174v-338zM492 369v143l40 82l82 41h164l82 -41l41 -82v-143l-41 -82l-82 -41h-164l-82 41zM502 983v102l41 82l82 41h143l82 -41l41 -82v-102l-41 -82l-82 -41 h-143l-82 41z" />
<glyph unicode="9" horiz-adv-x="1351" d="M160 317l106 -317h594l287 287v880l-266 267h-451l-266 -267v-389l225 -225h328l123 61v-215l-52 -102l-102 -51h-313zM471 901v184l41 82l82 41h123l82 -41l41 -82v-184l-41 -82l-82 -41h-123l-82 41z" />
<glyph unicode=":" horiz-adv-x="593" d="M102 82l82 -82h226l82 82v225l-82 82h-226l-82 -82v-225zM102 737l82 -82h226l82 82v226l-82 81h-226l-82 -81v-226z" />
<glyph unicode=";" horiz-adv-x="593" d="M102 82l82 -82h113v-51l-51 -103l-103 -51l-30 -61h102l184 92l93 184v277l-82 82h-226l-82 -82v-205zM102 737l82 -82h226l82 82v226l-82 81h-226l-82 -81v-226z" />
<glyph unicode="&#x3c;" horiz-adv-x="3072" d="M0 1239l82 -164l123 -61h143l195 30h174l82 21l-41 -51v-146l90 -90h63l-20 -41v-114l90 -91h63l-20 -40v-82l72 -72l194 -51h174l123 37l236 -78h270l123 41h98l-20 82v809l-697 256h-716zM113 1188l778 174h696l615 -225v-758h-11l-123 -41h-251l-240 82l-143 -41h-154 l-154 41l-30 31v51l20 41l144 41l61 61l-277 -31l-40 11l-41 41v71l30 41l174 51l62 62l-318 -31l-41 10l-41 41v72l21 41l82 41l164 41l61 61h-266l-195 -41h-174l-184 -30h-117l-82 41zM2386 379l82 -328l61 -123h441l102 103l-102 102l-103 399v533l78 215h-498l-61 -123 v-778zM2478 399v748l31 61h317l-41 -112v-584l107 -410l61 -61l-20 -21h-348l-31 62zM2621 133l41 -41h93l41 41v92l-41 41h-93l-41 -41v-92z" />
<glyph unicode="=" horiz-adv-x="1310" d="M82 399h1147v215h-1147v-215zM82 829h1147v215h-1147v-215z" />
<glyph unicode="&#x3e;" horiz-adv-x="3072" d="M0 31l102 -103h441l61 123l82 328v778l-61 123h-498l78 -215v-533l-103 -399zM119 41l61 61l107 410v584l-41 112h317l31 -61v-748l-76 -317l-31 -62h-348zM276 133l41 -41h93l41 41v92l-41 41h-93l-41 -41v-92zM758 287h98l123 -41h270l236 78l123 -37h174l194 51l72 72 v82l-20 40h63l90 91v114l-20 41h63l90 90v146l-41 51l82 -21h174l195 -30h143l123 61l82 164l-881 195h-716l-697 -256v-809zM870 379v758l615 225h696l778 -174l-26 -51l-82 -41h-117l-184 30h-174l-195 41h-266l61 -61l164 -41l82 -41l21 -41v-72l-41 -41l-41 -10l-318 31 l62 -62l174 -51l30 -41v-71l-41 -41l-40 -11l-277 31l61 -61l144 -41l20 -41v-51l-30 -31l-154 -41h-154l-143 41l-240 -82h-251l-123 41h-11z" />
<glyph unicode="?" horiz-adv-x="901" d="M35 1137l211 71h184l82 -41l41 -82v-81l-41 -82l-225 -113v-348h143l72 215l205 102l153 154v276l-225 226h-502zM205 82l82 -82h164l81 82v164l-81 82h-164l-82 -82v-164z" />
<glyph unicode="@" horiz-adv-x="2088" d="M205 184l368 -368h697l184 184h-676l-246 123l-122 246v573l122 246l246 123h676l164 -82l82 -164v-512l-82 -164h-143v778h-205l-41 -82l-82 82h-287l-246 -245v-533l246 -246h287l123 123l123 -123h163l349 349v634l-369 369h-963l-368 -369v-942zM881 492v348l41 82 l82 41h92l82 -41l41 -82v-348l-41 -82l-82 -41h-92l-82 41z" />
<glyph unicode="A" horiz-adv-x="1269" d="M0 0h379l-21 164l41 164l21 20h389l20 -20l41 -164l-20 -164h420l-82 164l-307 1136l30 134h-553l31 -134l-307 -1136zM471 614l133 553l10 62l11 -62l133 -553l-21 -20h-245z" />
<glyph unicode="B" horiz-adv-x="1372" d="M164 0h819l246 246v358l-174 174l153 154v276l-225 226h-819l41 -164v-1106zM512 287v338l20 20h226l102 -51l41 -82v-123l-41 -82l-102 -51h-215zM512 911v267l20 20h246l82 -41l41 -82v-61l-41 -82l-82 -41h-246z" />
<glyph unicode="C" horiz-adv-x="1126" d="M164 287l287 -287h532l113 338l-215 -72h-236l-102 51l-51 103v594l51 102l102 51h219l211 -71l-112 338h-512l-287 -287v-860z" />
<glyph unicode="D" horiz-adv-x="1413" d="M164 0h799l286 287v860l-286 287h-799l41 -164v-1106zM522 297v870l21 21h225l102 -51l52 -103v-614l-52 -103l-102 -51h-215z" />
<glyph unicode="E" horiz-adv-x="1126" d="M164 0h840l112 338l-215 -72h-358l-31 31v338l20 20h175l153 -51v348l-153 -51h-175l-20 21v245l20 21h369l184 -62l-102 308h-819l41 -164v-1106z" />
<glyph unicode="F" horiz-adv-x="1044" d="M164 0h399l-51 205v389l20 20h175l153 -51v348l-153 -51h-175l-20 21v286l20 21h369l184 -62l-102 308h-819l41 -164v-1106z" />
<glyph unicode="G" horiz-adv-x="1310" d="M164 266l266 -266h512l266 266l-20 123v266l61 123h-450l82 -164v-286l-62 -62h-205l-82 41l-40 82v625l51 102l102 51h281l211 -71l-113 338h-573l-287 -287v-881z" />
<glyph unicode="H" horiz-adv-x="1413" d="M164 0h389l-41 164v471l20 20h349l20 -20v-471l-41 -164h389l-41 164v1106l41 164h-389l41 -164v-348l-20 -21h-349l-20 21v348l41 164h-389l41 -164v-1106z" />
<glyph unicode="I" horiz-adv-x="716" d="M164 0h389l-41 164v1106l41 164h-389l41 -164v-1106z" />
<glyph unicode="J" horiz-adv-x="931" d="M-41 338l113 -338h430l266 266l-20 123v881l40 164h-409l51 -205v-809l-51 -103l-103 -51h-112z" />
<glyph unicode="K" horiz-adv-x="1351" d="M164 0h389l-41 164v399l20 41l134 133h30l185 -553l20 -184h430l-112 195l-287 788l430 430l-21 21h-378l-41 -123l-420 -420l10 31v348l41 164h-389l41 -164v-1106z" />
<glyph unicode="L" horiz-adv-x="1024" d="M164 0h799l112 338l-215 -72h-317l-31 31v932l51 205h-399l41 -164v-1106z" />
<glyph unicode="M" horiz-adv-x="1720" d="M164 0h348l-41 164v737l-10 82l31 -82l348 -799h10l348 799l31 82l-10 -82v-737l-41 -164h378l-40 164v1106l40 164h-399l-287 -650l-10 -47l-10 47l-287 650h-399l41 -164v-1106z" />
<glyph unicode="N" horiz-adv-x="1413" d="M154 1434l51 -164v-1106l-41 -164h348l-41 164v717l-10 102l41 -102l440 -881h266v1270l41 164h-348l41 -164v-553l10 -103l-41 103l-358 717h-399z" />
<glyph unicode="O" horiz-adv-x="1392" d="M164 266l266 -266h533l266 266v901l-266 267h-533l-266 -267v-901zM492 389v676l40 82l82 41h164l82 -41l41 -82v-676l-41 -82l-82 -41h-164l-82 41z" />
<glyph unicode="P" horiz-adv-x="1290" d="M164 0h399l-51 205v307l20 20h431l286 287v369l-245 246h-840l41 -164v-1106zM512 819v348l20 21h246l103 -51l41 -82v-123l-41 -82l-103 -51h-246z" />
<glyph unicode="Q" horiz-adv-x="1392" d="M164 266l266 -266h287l235 -236l246 123l-184 185l215 215v880l-266 267h-533l-266 -267v-901zM492 389v676l40 82l82 41h164l82 -41l41 -82v-676l-41 -82l-82 -41h-164l-82 41z" />
<glyph unicode="R" horiz-adv-x="1372" d="M164 0h389l-41 164v368l20 21h154l41 -21l174 -532h389l-112 195l-154 419l225 226v348l-245 246h-840l41 -164v-1106zM512 819v348l20 21h246l103 -51l41 -82v-123l-41 -82l-103 -51h-246z" />
<glyph unicode="S" horiz-adv-x="1146" d="M82 338l113 -338h563l266 266v379l-195 195l-307 71l-71 72v82l41 82l81 41h267l184 -62l-102 308h-533l-266 -267v-307l194 -194l308 -72l71 -72v-133l-41 -82l-82 -41h-282z" />
<glyph unicode="T" horiz-adv-x="1126" d="M-10 1096l215 71h184l21 -20v-963l-62 -184h430l-61 184v963l20 20h185l215 -71l-113 338h-922z" />
<glyph unicode="U" horiz-adv-x="1392" d="M143 1434l41 -164v-881l-20 -123l266 -266h533l266 266l-21 123v881l41 164h-389l41 -164v-881l-41 -82l-82 -41h-153l-82 41l-41 82v881l41 164h-400z" />
<glyph unicode="V" horiz-adv-x="1146" d="M-31 1434l82 -164l389 -1270h267l389 1270l82 164h-400l21 -164l-205 -738l-10 -81l-11 81l-204 738l20 164h-420z" />
<glyph unicode="W" horiz-adv-x="1740" d="M-31 1434l82 -164l369 -1270h211l229 850l10 72l11 -72l229 -850h211l369 1270l82 164h-390l21 -164l-164 -574l-10 -82l-10 82l-205 738h-266l-205 -738l-11 -82l-10 82l-164 574l21 164h-410z" />
<glyph unicode="X" horiz-adv-x="1208" d="M-31 0h410l20 143l185 328l10 41l10 -41l184 -328l21 -143h440l-123 143l-358 615l307 532l123 144h-410l-20 -144l-143 -286l-11 -41l-10 41l-143 286l-21 144h-440l123 -144l317 -553l-348 -594z" />
<glyph unicode="Y" horiz-adv-x="1064" d="M-92 1434l112 -164l369 -707v-379l-61 -184h430l-62 184v400l338 686l113 164h-379l-20 -144l-195 -389l-10 -41l-11 41l-194 389l-21 144h-409z" />
<glyph unicode="Z" horiz-adv-x="1146" d="M41 225l113 -225h850l112 338l-215 -72h-440l-27 27l651 936l-102 205h-799l-102 -308l184 62h410l20 -21z" />
<glyph unicode="[" horiz-adv-x="614" d="M164 -369h573v82h-327v1864h327v82h-573v-2028z" />
<glyph unicode="\" horiz-adv-x="716" d="M20 1516l533 -1598h143l-532 1598h-144z" />
<glyph unicode="]" horiz-adv-x="614" d="M-123 -287v-82h574v2028h-574v-82h328v-1864h-328z" />
<glyph unicode="^" horiz-adv-x="696" d="M41 1004l41 -11l266 267l266 -267l41 11l-143 286l-164 164l-164 -164z" />
<glyph unicode="_" horiz-adv-x="2048" d="M0 -307v-103h2048v103h-2048z" />
<glyph unicode="`" d="M348 1536l307 -307l52 20l-154 307l-123 62z" />
<glyph unicode="a" horiz-adv-x="1187" d="M123 164l164 -164h276l205 102l41 -102h276l-81 205v696l-205 205h-379l-184 -62l-82 -245l307 102h153l82 -41l41 -82v-41l-286 -71l-328 -164v-338zM379 307v62l31 61l163 82l164 41v-266l-143 -72h-123l-61 31z" />
<glyph unicode="b" horiz-adv-x="1259" d="M143 1475l41 -164v-1311h195l72 72l143 -72h297l225 225v656l-225 225h-287l-164 -82v451h-297zM451 369v368l51 103l82 41h133l82 -41l41 -82v-410l-41 -82l-82 -41h-133l-82 41z" />
<glyph unicode="c" horiz-adv-x="962" d="M143 225l226 -225h446l96 287l-184 -62h-154l-102 51l-51 103v379l41 82l82 41h184l184 -62l-96 287h-446l-226 -225v-656z" />
<glyph unicode="d" horiz-adv-x="1259" d="M143 225l226 -225h286l164 82l31 -82h266l-41 164v1311h-307l41 -164v-277l-143 72h-297l-226 -225v-656zM420 348v410l41 82l82 41h133l82 -41l51 -103v-368l-51 -103l-82 -41h-133l-82 41z" />
<glyph unicode="e" horiz-adv-x="1146" d="M143 225l226 -225h549l96 287l-178 -62h-263l-102 51l-51 103v113h624v389l-225 225h-450l-226 -225v-656zM420 676v102l41 82l82 41h102l82 -41l41 -82v-102h-348z" />
<glyph unicode="f" horiz-adv-x="737" d="M61 819h144v-655l-41 -164h348l-41 164v655h246v195h-246v112l41 82l82 41h154l122 -41l-86 267h-333l-246 -246v-185l-144 -71v-154z" />
<glyph unicode="g" horiz-adv-x="1249" d="M143 287l226 -226h276l143 72v-174l-40 -82l-82 -41h-246l-184 62l75 -226l123 -41h385l246 246v1065l41 164h-246l-31 -82l-163 82h-277l-246 -246v-573zM420 399v369l41 82l82 41h123l82 -41l51 -102v-328l-51 -103l-82 -41h-123l-82 41z" />
<glyph unicode="h" d="M143 0h349l-41 164v573l51 103l82 41h92l82 -41l41 -82v-594l-41 -164h348l-41 164v737l-205 205h-266l-143 -72v441h-308l41 -164v-1147z" />
<glyph unicode="i" horiz-adv-x="634" d="M113 1014l71 -144v-706l-41 -164h349l-41 164v962zM164 1290l82 -82h143l82 82v123l-82 82h-143l-82 -82v-123z" />
<glyph unicode="j" horiz-adv-x="634" d="M0 -123v-205h143l308 308v1146l-338 -112l71 -144v-778l-82 -164zM164 1290l82 -82h143l82 82v123l-82 82h-143l-82 -82v-123z" />
<glyph unicode="k" horiz-adv-x="1146" d="M143 0h349l-41 164v235l20 41l113 113h30l134 -399l20 -154h369l-103 164l-225 604l317 317l-20 21h-338l-41 -123l-287 -287l11 31v748h-308l41 -164v-1147z" />
<glyph unicode="l" horiz-adv-x="634" d="M143 0h349l-41 164v1311h-308l41 -164v-1147z" />
<glyph unicode="m" horiz-adv-x="1802" d="M113 1014l71 -144v-706l-41 -164h349l-41 164v573l51 103l82 41h71l82 -41l41 -82v-594l-41 -164h348l-41 164v573l52 103l82 41h71l82 -41l41 -82v-594l-41 -164h348l-41 164v737l-204 205h-256l-205 -102l-144 102h-204l-185 -92l-20 102z" />
<glyph unicode="n" d="M113 1014l71 -144v-706l-41 -164h349l-41 164v573l51 103l82 41h92l82 -41l41 -82v-594l-41 -164h348l-41 164v737l-205 205h-235l-185 -92l-20 102z" />
<glyph unicode="o" d="M143 225l226 -225h491l225 225v656l-225 225h-491l-226 -225v-656zM420 348v410l41 82l82 41h143l82 -41l41 -82v-410l-41 -82l-82 -41h-143l-82 41z" />
<glyph unicode="p" horiz-adv-x="1259" d="M113 1014l71 -144v-1075l-41 -164h349l-41 164v277l143 -72h297l225 225v656l-225 225h-287l-164 -82l-20 92zM451 369v368l51 103l82 41h133l82 -41l41 -82v-410l-41 -82l-82 -41h-133l-82 41z" />
<glyph unicode="q" horiz-adv-x="1259" d="M143 225l226 -225h297l143 72v-277l-41 -164h348l-41 164v1372l-205 -61l-30 -82l-164 82h-307l-226 -225v-656zM420 348v410l41 82l82 41h133l82 -41l51 -103v-368l-51 -103l-82 -41h-133l-82 41z" />
<glyph unicode="r" horiz-adv-x="901" d="M113 1014l71 -144v-706l-41 -164h349l-41 164v553l51 102l82 41h92l102 -102l144 143v103l-103 102h-225l-143 -143l-31 153z" />
<glyph unicode="s" horiz-adv-x="962" d="M72 276l92 -276h491l226 225v226l-185 184l-256 51l-61 62v51l31 61l61 31h205l184 -62l-92 277h-440l-226 -225v-226l185 -184l256 -51l61 -62v-51l-31 -61l-61 -31h-262z" />
<glyph unicode="t" horiz-adv-x="778" d="M41 901h143v-696l205 -205h273l86 266l-123 -41h-52l-81 41l-41 82v553h286v205h-286v205l30 102h-30l-267 -133v-154l-143 -71v-154z" />
<glyph unicode="u" d="M92 1014l72 -144v-665l205 -205h256l163 82l31 -82h266l-41 164v962l-337 -112l71 -144v-501l-51 -103l-82 -41h-92l-82 41l-41 82v778z" />
<glyph unicode="v" horiz-adv-x="983" d="M-20 1106l81 -164l318 -942h225l318 942l82 164h-349l21 -164l-164 -491l-10 -62l-10 62l-164 491l20 164h-368z" />
<glyph unicode="w" horiz-adv-x="1576" d="M-20 1106l81 -164l318 -942h194l205 614l10 62l11 -62l205 -614h194l318 942l81 164h-348l21 -164l-154 -461l-10 -61l-10 61l-154 461l21 164h-328l20 -164l-153 -461l-10 -61l-11 61l-153 461l20 164h-368z" />
<glyph unicode="x" horiz-adv-x="1044" d="M-10 0h358l21 123l133 235l10 31l10 -31l133 -235l21 -123h379l-103 123l-286 450l266 410l102 123h-358l-21 -123l-112 -205l-11 -30l-10 30l-112 205l-21 123h-379l103 -123l266 -420l-287 -440z" />
<glyph unicode="y" horiz-adv-x="983" d="M-20 1106l81 -164l297 -881l-215 -430h215l185 185l379 1126l82 164h-349l21 -164l-164 -491l-10 -62l-10 62l-164 491l20 164h-368z" />
<glyph unicode="z" horiz-adv-x="983" d="M51 184l92 -184h713l96 287l-178 -62h-354l-21 21l533 676l-92 184h-686l-97 -287l185 62h321l21 -21z" />
<glyph unicode="{" horiz-adv-x="696" d="M61 645l123 -123v-153l-61 -185l184 -368l307 -205h164v72l-123 20l-143 143l-143 287l82 266l-123 246l123 246l-82 266l143 287l143 143l123 21v71h-164l-307 -204l-184 -369l61 -184v-154z" />
<glyph unicode="|" horiz-adv-x="716" d="M297 -82h123v1598h-123v-1598z" />
<glyph unicode="}" horiz-adv-x="696" d="M-82 -317v-72h164l307 205l184 368l-61 185v153l123 123l-123 123v154l61 184l-184 369l-307 204h-164v-71l123 -21l143 -143l144 -287l-82 -266l123 -246l-123 -246l82 -266l-144 -287l-143 -143z" />
<glyph unicode="~" horiz-adv-x="901" d="M92 594l51 -51l41 82l103 51l245 -103h144l92 93l41 122l-51 52l-41 -82l-103 -51l-245 102h-144l-92 -92z" />
<glyph unicode="&#xa1;" horiz-adv-x="696" d="M184 82l82 -82h164l82 82v379l-102 512h-123l-103 -512v-379zM184 1188l82 -82h164l82 82v164l-82 82h-164l-82 -82v-164z" />
<glyph unicode="&#xa2;" horiz-adv-x="962" d="M143 307l226 -225h49l-49 -246h112l49 246h101l184 61l76 226l-184 -62h-132l130 660l206 -70l-96 291h-67l40 205h-112l-41 -205h-266l-226 -225v-656zM420 461v379l41 82l82 41h47l-119 -605z" />
<glyph unicode="&#xa3;" horiz-adv-x="1146" d="M102 502h256l72 -144v-82l-41 -40l-153 -52l-93 -184h809l113 338l-215 -72h-195l-20 21v215h225l41 123h-287l-122 245v164l51 103l102 51h174l225 -72l-106 318h-487l-246 -246v-359l102 -204h-164z" />
<glyph unicode="&#xa4;" horiz-adv-x="1392" d="M102 553h226v-266l286 -287h537l109 317l-205 -71h-267l-102 51l-51 102v154h430l41 123h-471v123h430l41 123h-471v133l51 102l102 51h230l211 -71l-99 297h-516l-286 -287v-225h-185l-41 -123h226v-123h-185z" />
<glyph unicode="&#xa5;" horiz-adv-x="1146" d="M25 1434l112 -164l266 -533h-260l41 -123h256v-122h-256l-41 -123h297v-205l-51 -164h389l-51 164v205h297l-41 123h-256v122h256l41 123h-276l266 533l112 164h-317l-21 -123l-184 -369l-10 -41l-10 41l-185 369l-20 123h-354z" />
<glyph unicode="&#xa6;" horiz-adv-x="716" d="M297 -82h123v696h-123v-696zM297 819h123v697h-123v-697z" />
<glyph unicode="&#xa7;" horiz-adv-x="1126" d="M123 348l164 -164l307 -51l72 -72v-71l-31 -62l-62 -30h-200l-219 71l92 -276h471l225 225v225l-184 185l246 164v307l-164 164l-308 51l-71 71v52l31 61l61 31h164l225 -72l-92 277h-440l-226 -226v-204l185 -185l-246 -164v-307zM358 461v92l31 61l143 144h164l72 -72 v-92l-31 -62l-143 -143h-164z" />
<glyph unicode="&#xa8;" d="M297 1321l61 -61h113l61 61v113l-61 61h-113l-61 -61v-113zM696 1321l62 -61h112l62 61v113l-62 61h-112l-62 -61v-113z" />
<glyph unicode="&#xa9;" horiz-adv-x="2048" d="M205 369l471 -471h696l471 471v696l-471 471h-696l-471 -471v-696zM369 573v287l184 369l328 164h286l328 -164l184 -369v-287l-184 -368l-328 -164h-286l-328 164zM737 481l174 -174h338l72 215l-127 -51h-160l-61 31l-31 61v348l31 62l61 31h146l131 -46l-72 209h-328 l-174 -174v-512z" />
<glyph unicode="&#xaa;" horiz-adv-x="1146" d="M143 635l226 -225h307l82 82l41 -82h205v1024h-205l-41 -82l-82 82h-307l-226 -226v-573zM307 0h533v225h-533v-225zM410 758v348l41 82l81 41h82l82 -41l41 -82v-348l-41 -82l-82 -41h-82l-81 41z" />
<glyph unicode="&#xab;" horiz-adv-x="819" d="M41 614l61 -61l205 -410l82 82l-123 369v41l123 369l-82 81l-205 -409zM410 614l61 -61l205 -410l82 82l-123 369v41l123 369l-82 81l-205 -409z" />
<glyph unicode="&#xac;" horiz-adv-x="1720" d="M-41 1638l1147 -1730l82 41l409 665l123 62l-368 368l-205 -409l-82 -41l-1045 1044h-61z" />
<glyph unicode="&#xad;" horiz-adv-x="737" d="M82 573h573v226h-573v-226z" />
<glyph unicode="&#xae;" horiz-adv-x="1024" d="M102 1055l236 -236h348l236 236v348l-236 235h-348l-236 -235v-348zM184 1157v143l92 185l164 82h144l164 -82l92 -185v-143l-92 -184l-164 -82h-144l-164 82zM358 1024h123l-14 51v107l6 6h45l12 -6l54 -158h112l-30 61l-48 123l68 68v106l-72 72h-256l15 -51v-328z M467 1266v110l6 6h74l31 -14l12 -25v-43l-12 -24l-31 -16h-74z" />
<glyph unicode="&#xaf;" d="M369 1311h491v123h-491v-123z" />
<glyph unicode="&#xb0;" horiz-adv-x="1392" d="M82 246l246 -246h368l123 123l123 -123h328l82 317l-144 -71h-112l-82 41l-51 102v123l51 102l82 41h112l103 -51l-62 256h-297l-123 -123l-20 -41l-246 492l21 20h286l205 -71l-102 297h-533l-204 -205l153 -307l-307 -308v-368zM389 369v163l41 82l82 82l184 -368 l-30 -52l-62 -30h-92l-82 41z" />
<glyph unicode="&#xb1;" horiz-adv-x="2027" d="M61 819h144v-655l-41 -164h348l-41 164v655h225v195h-225v112l41 82l82 41h92l123 -41l-51 267h-307l-246 -246v-185l-144 -71v-154zM758 819h123v-655l-41 -164h348l-41 164v655h225v195h-225v112l41 82l82 41h82l123 -41l-86 267h-263l-245 -246v-185l-123 -61v-164z M1516 0h348l-41 164v1311h-307l40 -164v-1147z" />
<glyph unicode="&#xb2;" horiz-adv-x="778" d="M41 727l78 -154h495l68 209l-133 -45h-246l-37 -4l31 25l338 338v194l-143 144h-349l-61 -185l123 41h153l62 -30l31 -62v-31l-31 -61z" />
<glyph unicode="&#xb3;" horiz-adv-x="778" d="M57 768l66 -195h379l164 164v201l-103 102l92 93v178l-123 123h-393l-61 -189l147 49h176l50 -24l24 -49v-45l-24 -50l-50 -24h-186v-135h174l62 -31l30 -62v-55l-30 -61l-62 -31h-205z" />
<glyph unicode="&#xb4;" d="M522 1249l51 -20l308 307l-82 82l-123 -62z" />
<glyph unicode="&#xb5;" horiz-adv-x="3072" d="M20 1219l62 -123l119 -62h147l195 31h164l163 31l-92 -92v-127l78 -78h90l-35 -72v-96l78 -78h86l-31 -61v-72l62 -62l194 -51h164l123 37l236 -78h266l123 41h82l-21 82v778l-676 246h-716zM2386 379l82 -328l61 -123h441l102 103l-102 102l-103 399v533l78 215h-498 l-61 -123v-778zM2478 399v748l31 61h317l-41 -112v-584l107 -410l61 -61l-20 -21h-348l-31 62zM2621 133l41 -41h93l41 41v92l-41 41h-93l-41 -41v-92z" />
<glyph unicode="&#xb6;" horiz-adv-x="819" d="M0 819l205 -205h287l20 -20v-963h102v1639l82 164h-491l-205 -205v-410z" />
<glyph unicode="&#xb7;" horiz-adv-x="593" d="M102 573l82 -81h226l82 81v226l-82 82h-226l-82 -82v-226z" />
<glyph unicode="&#xb8;" d="M492 -266l92 -31l102 51l72 72v113l-62 61h-164l62 -61v-103z" />
<glyph unicode="&#xb9;" horiz-adv-x="491" d="M41 1260h123v-564l-41 -123h256l-41 123v738h-211z" />
<glyph unicode="&#xba;" horiz-adv-x="1146" d="M143 635l226 -225h409l226 225v573l-226 226h-409l-226 -226v-573zM307 0h533v225h-533v-225zM410 758v348l41 82l81 41h82l82 -41l41 -82v-348l-41 -82l-82 -41h-82l-81 41z" />
<glyph unicode="&#xbb;" horiz-adv-x="819" d="M61 225l82 -82l205 410l62 61l-62 62l-205 409l-82 -81l123 -369v-41zM430 225l82 -82l205 410l61 61l-61 62l-205 409l-82 -81l123 -369v-41z" />
<glyph unicode="&#xbc;" horiz-adv-x="1433" d="M41 1260h123v-564l-41 -123h256l-41 123v738h-211zM205 0h82l717 1434h-82zM676 369l86 -174h309l10 -11v-86l-24 -98h217l-25 98v86l11 11h102l47 143h-149l-11 10v414l25 98h-209zM850 369l211 276l29 51l-9 -57v-291l-10 -10h-201z" />
<glyph unicode="&#xbd;" horiz-adv-x="1474" d="M41 1260h123v-564l-41 -123h256l-41 123v738h-211zM205 0h82l717 1434h-82zM758 154l78 -154h495l68 209l-133 -45h-246l-31 -4l363 362v195l-144 143h-348l-61 -184l123 41h153l62 -31l30 -61v-31l-30 -62z" />
<glyph unicode="&#xbe;" horiz-adv-x="1638" d="M57 768l66 -195h379l164 164v201l-103 102l92 93v178l-123 123h-393l-61 -189l147 49h176l50 -24l24 -49v-45l-24 -50l-50 -24h-186v-135h174l62 -31l30 -62v-55l-30 -61l-62 -31h-205zM430 0h82l717 1434h-82zM881 369l86 -174h309l10 -11v-86l-24 -98h217l-25 98v86 l10 11h103l47 143h-150l-10 10v414l25 98h-209zM1055 369l211 276l28 51l-8 -57v-291l-10 -10h-201z" />
<glyph unicode="&#xbf;" horiz-adv-x="901" d="M41 225l225 -225h502l98 297l-211 -72h-184l-82 41l-41 82v82l41 82l225 113v348h-143l-72 -215l-204 -103l-154 -153v-277zM369 1188l82 -82h163l82 82v164l-82 82h-163l-82 -82v-164z" />
<glyph unicode="&#xc0;" horiz-adv-x="1269" d="M0 0h379l-21 164l41 164l21 20h389l20 -20l41 -164l-20 -164h420l-82 164l-307 1136l30 134h-553l31 -134l-307 -1136zM410 1864l307 -308l51 21l-154 307l-122 62zM471 614l133 553l10 62l11 -62l133 -553l-21 -20h-245z" />
<glyph unicode="&#xc1;" horiz-adv-x="1269" d="M0 0h379l-21 164l41 164l21 20h389l20 -20l41 -164l-20 -164h420l-82 164l-307 1136l30 134h-553l31 -134l-307 -1136zM471 614l133 553l10 62l11 -62l133 -553l-21 -20h-245zM502 1577l51 -21l307 308l-82 82l-123 -62z" />
<glyph unicode="&#xc2;" horiz-adv-x="1269" d="M0 0h379l-21 164l41 164l21 20h389l20 -20l41 -164l-20 -164h420l-82 164l-307 1136l30 134h-553l31 -134l-307 -1136zM379 1577l51 -21l102 103l31 61l72 72l72 -72l30 -61l103 -103l51 21l-133 266l-123 123l-123 -123zM471 614l133 553l10 62l11 -62l133 -553l-21 -20 h-245z" />
<glyph unicode="&#xc3;" horiz-adv-x="1269" d="M0 0h379l-21 164l41 164l21 20h389l20 -20l41 -164l-20 -164h420l-82 164l-307 1136l30 134h-553l31 -134l-307 -1136zM338 1618l51 -51l41 82l82 41l184 -93h113l82 82l41 123l-51 51l-41 -81l-82 -41l-185 92h-112l-82 -82zM471 614l133 553l10 62l11 -62l133 -553 l-21 -20h-245z" />
<glyph unicode="&#xc4;" horiz-adv-x="1269" d="M0 0h379l-21 164l41 164l21 20h389l20 -20l41 -164l-20 -164h420l-82 164l-307 1136l30 134h-553l31 -134l-307 -1136zM317 1649l62 -62h113l61 62v112l-61 62h-113l-62 -62v-112zM471 614l133 553l10 62l11 -62l133 -553l-21 -20h-245zM717 1649l61 -62h113l61 62v112 l-61 62h-113l-61 -62v-112z" />
<glyph unicode="&#xc5;" horiz-adv-x="1269" d="M0 0h379l-21 164l41 164l21 20h389l20 -20l41 -164l-20 -164h420l-82 164l-307 1136l30 134h-553l31 -134l-307 -1136zM410 1659l122 -123h205l123 123v164l-123 123h-205l-122 -123v-164zM471 614l133 553l10 62l11 -62l133 -553l-21 -20h-245zM502 1690v102l71 72h123 l72 -72v-102l-72 -72h-123z" />
<glyph unicode="&#xc6;" horiz-adv-x="1720" d="M-164 0h420l-16 133l98 195l20 20h420l21 -20v-164l-41 -164h839l113 338l-215 -72h-358l-31 31v338l20 20h174l154 -51v348l-154 -51h-174l-20 21v245l20 21h369l184 -62l-102 308h-1075l26 -134l-569 -1136zM471 614l338 676l-10 -61v-615l-21 -20h-286z" />
<glyph unicode="&#xc7;" horiz-adv-x="1126" d="M164 287l287 -287h163l62 -61v-103l-103 -102l93 -31l102 51l72 72v113l-62 61h205l113 338l-215 -72h-236l-102 51l-51 103v594l51 102l102 51h219l211 -71l-112 338h-512l-287 -287v-860z" />
<glyph unicode="&#xc8;" horiz-adv-x="1126" d="M164 0h840l112 338l-215 -72h-358l-31 31v338l20 20h175l153 -51v348l-153 -51h-175l-20 21v245l20 21h369l184 -62l-102 308h-819l41 -164v-1106zM369 1864l307 -308l51 21l-154 307l-122 62z" />
<glyph unicode="&#xc9;" horiz-adv-x="1126" d="M164 0h840l112 338l-215 -72h-358l-31 31v338l20 20h175l153 -51v348l-153 -51h-175l-20 21v245l20 21h369l184 -62l-102 308h-819l41 -164v-1106zM522 1577l51 -21l308 308l-82 82l-123 -62z" />
<glyph unicode="&#xca;" horiz-adv-x="1126" d="M164 0h840l112 338l-215 -72h-358l-31 31v338l20 20h175l153 -51v348l-153 -51h-175l-20 21v245l20 21h369l184 -62l-102 308h-819l41 -164v-1106zM358 1577l52 -21l102 103l31 61l71 72l72 -72l31 -61l102 -103l51 21l-133 266l-123 123l-122 -123z" />
<glyph unicode="&#xcb;" horiz-adv-x="1126" d="M164 0h840l112 338l-215 -72h-358l-31 31v338l20 20h175l153 -51v348l-153 -51h-175l-20 21v245l20 21h369l184 -62l-102 308h-819l41 -164v-1106zM297 1649l61 -62h113l61 62v112l-61 62h-113l-61 -62v-112zM696 1649l62 -62h112l62 62v112l-62 62h-112l-62 -62v-112z " />
<glyph unicode="&#xcc;" horiz-adv-x="716" d="M164 0h389l-41 164v1106l41 164h-389l41 -164v-1106zM164 1864l307 -308l51 21l-153 307l-123 62z" />
<glyph unicode="&#xcd;" horiz-adv-x="716" d="M164 0h389l-41 164v1106l41 164h-389l41 -164v-1106zM236 1577l51 -21l307 308l-82 82l-123 -62z" />
<glyph unicode="&#xce;" horiz-adv-x="716" d="M102 1577l52 -21l102 103l31 61l71 72l72 -72l31 -61l102 -103l51 21l-133 266l-123 123l-122 -123zM164 0h389l-41 164v1106l41 164h-389l41 -164v-1106z" />
<glyph unicode="&#xcf;" horiz-adv-x="716" d="M41 1649l61 -62h113l61 62v112l-61 62h-113l-61 -62v-112zM164 0h389l-41 164v1106l41 164h-389l41 -164v-1106zM440 1649l62 -62h112l62 62v112l-62 62h-112l-62 -62v-112z" />
<glyph unicode="&#xd0;" horiz-adv-x="1413" d="M82 696h123v-532l-41 -164h799l286 287v860l-286 287h-799l41 -164v-410h-123v-164zM522 297v399h154v164h-154v307l21 21h225l102 -51l52 -103v-614l-52 -103l-102 -51h-215z" />
<glyph unicode="&#xd1;" horiz-adv-x="1413" d="M154 1434l51 -164v-1106l-41 -164h348l-41 164v717l-10 102l41 -102l440 -881h266v1270l41 164h-348l41 -164v-553l10 -103l-41 103l-358 717h-399zM420 1618l51 -51l41 82l82 41l184 -93h113l82 82l41 123l-51 51l-41 -81l-82 -41l-185 92h-112l-82 -82z" />
<glyph unicode="&#xd2;" horiz-adv-x="1392" d="M164 266l266 -266h533l266 266v901l-266 267h-533l-266 -267v-901zM451 1864l307 -308l51 21l-154 307l-123 62zM492 389v676l40 82l82 41h164l82 -41l41 -82v-676l-41 -82l-82 -41h-164l-82 41z" />
<glyph unicode="&#xd3;" horiz-adv-x="1392" d="M164 266l266 -266h533l266 266v901l-266 267h-533l-266 -267v-901zM492 389v676l40 82l82 41h164l82 -41l41 -82v-676l-41 -82l-82 -41h-164l-82 41zM584 1577l51 -21l307 308l-82 82l-123 -62z" />
<glyph unicode="&#xd4;" horiz-adv-x="1392" d="M164 266l266 -266h533l266 266v901l-266 267h-533l-266 -267v-901zM430 1577l51 -21l103 103l30 61l72 72l72 -72l30 -61l103 -103l51 21l-133 266l-123 123l-123 -123zM492 389v676l40 82l82 41h164l82 -41l41 -82v-676l-41 -82l-82 -41h-164l-82 41z" />
<glyph unicode="&#xd5;" horiz-adv-x="1392" d="M164 266l266 -266h533l266 266v901l-266 267h-533l-266 -267v-901zM399 1618l52 -51l41 82l81 41l185 -93h112l82 82l41 123l-51 51l-41 -81l-82 -41l-184 92h-113l-82 -82zM492 389v676l40 82l82 41h164l82 -41l41 -82v-676l-41 -82l-82 -41h-164l-82 41z" />
<glyph unicode="&#xd6;" horiz-adv-x="1392" d="M164 266l266 -266h533l266 266v901l-266 267h-533l-266 -267v-901zM379 1649l61 -62h113l61 62v112l-61 62h-113l-61 -62v-112zM492 389v676l40 82l82 41h164l82 -41l41 -82v-676l-41 -82l-82 -41h-164l-82 41zM778 1649l62 -62h112l62 62v112l-62 62h-112l-62 -62v-112z " />
<glyph unicode="&#xd7;" horiz-adv-x="1382" d="M184 1065l359 -358l-348 -349l153 -153l348 348l348 -348l164 164l-358 358l348 348l-143 144l-348 -349l-359 359z" />
<glyph unicode="&#xd8;" horiz-adv-x="1392" d="M164 266l158 -157l-97 -191h123l58 113l30 -31h527l266 266v901l-170 170l88 179h-123l-51 -103l-21 21h-522l-266 -267v-901zM481 410l11 51v604l40 82l82 41h195l41 -41zM543 307l368 737l-10 -51v-604l-41 -82l-82 -41h-194z" />
<glyph unicode="&#xd9;" horiz-adv-x="1392" d="M143 1434l41 -164v-881l-20 -123l266 -266h533l266 266l-21 123v881l41 164h-389l41 -164v-881l-41 -82l-82 -41h-153l-82 41l-41 82v881l41 164h-400zM451 1864l307 -308l51 21l-154 307l-123 62z" />
<glyph unicode="&#xda;" horiz-adv-x="1392" d="M143 1434l41 -164v-881l-20 -123l266 -266h533l266 266l-21 123v881l41 164h-389l41 -164v-881l-41 -82l-82 -41h-153l-82 41l-41 82v881l41 164h-400zM614 1577l52 -21l307 308l-82 82l-123 -62z" />
<glyph unicode="&#xdb;" horiz-adv-x="1392" d="M143 1434l41 -164v-881l-20 -123l266 -266h533l266 266l-21 123v881l41 164h-389l41 -164v-881l-41 -82l-82 -41h-153l-82 41l-41 82v881l41 164h-400zM451 1577l51 -21l102 103l31 61l72 72l71 -72l31 -61l102 -103l52 21l-134 266l-122 123l-123 -123z" />
<glyph unicode="&#xdc;" horiz-adv-x="1392" d="M143 1434l41 -164v-881l-20 -123l266 -266h533l266 266l-21 123v881l41 164h-389l41 -164v-881l-41 -82l-82 -41h-153l-82 41l-41 82v881l41 164h-400zM379 1649l61 -62h113l61 62v112l-61 62h-113l-61 -62v-112zM778 1649l62 -62h112l62 62v112l-62 62h-112l-62 -62 v-112z" />
<glyph unicode="&#xdd;" horiz-adv-x="1064" d="M-92 1434l112 -164l369 -707v-379l-61 -184h430l-62 184v400l338 686l113 164h-379l-20 -144l-195 -389l-10 -41l-11 41l-194 389l-21 144h-409zM440 1536l52 -20l307 307l-82 82l-123 -62z" />
<glyph unicode="&#xde;" horiz-adv-x="1269" d="M164 0h389l-41 164v102l20 21h410l287 286v369l-246 246h-451l-20 20v62l41 164h-389l41 -164v-1106zM512 573v349l20 20h226l102 -51l41 -82v-123l-41 -82l-102 -51h-226z" />
<glyph unicode="&#xdf;" horiz-adv-x="1331" d="M61 819h144v-655l-41 -164h307v1147l41 82l82 41h143l82 -41l41 -82v-72l-266 -133v-328l143 -143l236 -51l61 -62v-51l-30 -61l-62 -31h-221l-178 61l92 -276h450l226 225v226l-185 184l-235 51l-62 62v51l31 61l246 123v287l-205 205h-450l-246 -246v-185l-144 -71 v-154z" />
<glyph unicode="&#xe0;" horiz-adv-x="1187" d="M123 164l164 -164h276l205 102l41 -102h276l-81 205v696l-205 205h-379l-184 -62l-82 -245l307 102h153l82 -41l41 -82v-41l-286 -71l-328 -164v-338zM369 1536l307 -307l51 20l-154 307l-122 62zM379 307v62l31 61l163 82l164 41v-266l-143 -72h-123l-61 31z" />
<glyph unicode="&#xe1;" horiz-adv-x="1187" d="M123 164l164 -164h276l205 102l41 -102h276l-81 205v696l-205 205h-379l-184 -62l-82 -245l307 102h153l82 -41l41 -82v-41l-286 -71l-328 -164v-338zM379 307v62l31 61l163 82l164 41v-266l-143 -72h-123l-61 31zM461 1249l51 -20l307 307l-82 82l-123 -62z" />
<glyph unicode="&#xe2;" horiz-adv-x="1187" d="M123 164l164 -164h276l205 102l41 -102h276l-81 205v696l-205 205h-379l-184 -62l-82 -245l307 102h153l82 -41l41 -82v-41l-286 -71l-328 -164v-338zM317 1249l52 -20l102 102l31 62l71 71l72 -71l31 -62l102 -102l51 20l-133 267l-123 122l-122 -122zM379 307v62l31 61 l163 82l164 41v-266l-143 -72h-123l-61 31z" />
<glyph unicode="&#xe3;" horiz-adv-x="1187" d="M123 164l164 -164h276l205 102l41 -102h276l-81 205v696l-205 205h-379l-184 -62l-82 -245l307 102h153l82 -41l41 -82v-41l-286 -71l-328 -164v-338zM297 1290l51 -51l41 82l82 41l184 -92h113l82 82l41 123l-51 51l-41 -82l-82 -41l-185 92h-112l-82 -82zM379 307v62 l31 61l163 82l164 41v-266l-143 -72h-123l-61 31z" />
<glyph unicode="&#xe4;" horiz-adv-x="1187" d="M123 164l164 -164h276l205 102l41 -102h276l-81 205v696l-205 205h-379l-184 -62l-82 -245l307 102h153l82 -41l41 -82v-41l-286 -71l-328 -164v-338zM287 1321l61 -61h113l61 61v113l-61 61h-113l-61 -61v-113zM379 307v62l31 61l163 82l164 41v-266l-143 -72h-123 l-61 31zM686 1321l62 -61h112l62 61v113l-62 61h-112l-62 -61v-113z" />
<glyph unicode="&#xe5;" horiz-adv-x="1187" d="M123 164l164 -164h276l205 102l41 -102h276l-81 205v696l-205 205h-379l-184 -62l-82 -245l307 102h153l82 -41l41 -82v-41l-286 -71l-328 -164v-338zM369 1331l123 -123h204l123 123v164l-123 123h-204l-123 -123v-164zM379 307v62l31 61l163 82l164 41v-266l-143 -72 h-123l-61 31zM461 1362v102l71 72h123l72 -72v-102l-72 -72h-123z" />
<glyph unicode="&#xe6;" horiz-adv-x="1740" d="M123 164l164 -164h358l205 102l102 -102h549l96 287l-178 -62h-262l-102 51l-51 103v113h624v389l-225 225h-420l-102 -102l-103 102h-358l-184 -62l-82 -245l307 102h153l82 -41l41 -82v-41l-286 -71l-328 -164v-338zM379 307v62l31 61l163 82l164 41v-266l-143 -72 h-125l-59 31zM1004 676v102l40 82l82 41h113l82 -41l41 -82v-102h-358z" />
<glyph unicode="&#xe7;" horiz-adv-x="962" d="M143 225l226 -225h123l61 -61v-103l-102 -102l92 -31l102 51l72 72v113l-62 61h160l96 287l-184 -62h-154l-102 51l-51 103v379l41 82l82 41h184l184 -62l-96 287h-446l-226 -225v-656z" />
<glyph unicode="&#xe8;" horiz-adv-x="1146" d="M143 225l226 -225h549l96 287l-178 -62h-263l-102 51l-51 103v113h624v389l-225 225h-450l-226 -225v-656zM358 1536l308 -307l51 20l-154 307l-123 62zM420 676v102l41 82l82 41h102l82 -41l41 -82v-102h-348z" />
<glyph unicode="&#xe9;" horiz-adv-x="1146" d="M143 225l226 -225h549l96 287l-178 -62h-263l-102 51l-51 103v113h624v389l-225 225h-450l-226 -225v-656zM420 676v102l41 82l82 41h102l82 -41l41 -82v-102h-348zM502 1249l51 -20l307 307l-82 82l-123 -62z" />
<glyph unicode="&#xea;" horiz-adv-x="1146" d="M143 225l226 -225h549l96 287l-178 -62h-263l-102 51l-51 103v113h624v389l-225 225h-450l-226 -225v-656zM338 1249l51 -20l103 102l30 62l72 71l72 -71l30 -62l103 -102l51 20l-133 267l-123 122l-123 -122zM420 676v102l41 82l82 41h102l82 -41l41 -82v-102h-348z" />
<glyph unicode="&#xeb;" horiz-adv-x="1146" d="M143 225l226 -225h549l96 287l-178 -62h-263l-102 51l-51 103v113h624v389l-225 225h-450l-226 -225v-656zM266 1321l62 -61h112l62 61v113l-62 61h-112l-62 -61v-113zM420 676v102l41 82l82 41h102l82 -41l41 -82v-102h-348zM666 1321l61 -61h113l61 61v113l-61 61h-113 l-61 -61v-113z" />
<glyph unicode="&#xec;" horiz-adv-x="634" d="M113 1014l71 -144v-706l-41 -164h349l-41 164v962zM113 1536l307 -307l51 20l-154 307l-122 62z" />
<glyph unicode="&#xed;" horiz-adv-x="634" d="M113 1014l71 -144v-706l-41 -164h349l-41 164v962zM174 1249l51 -20l307 307l-81 82l-123 -62z" />
<glyph unicode="&#xee;" horiz-adv-x="634" d="M59 1249l52 -20l102 102l31 62l71 71l72 -71l31 -62l102 -102l51 20l-133 267l-123 122l-122 -122zM113 1014l71 -144v-706l-41 -164h349l-41 164v962z" />
<glyph unicode="&#xef;" horiz-adv-x="634" d="M10 1321l62 -61h112l62 61v113l-62 61h-112l-62 -61v-113zM113 1014l71 -144v-706l-41 -164h349l-41 164v962zM389 1321l62 -61h112l62 61v113l-62 61h-112l-62 -61v-113z" />
<glyph unicode="&#xf0;" d="M143 225l226 -225h491l225 225v635l-229 459l12 -4l95 47l-41 82l-103 -51l-4 -11l-113 113h-241l119 -119l45 -90l-11 4l-102 -51l41 -82l102 51l11 11v-11l82 -164l-123 62h-256l-226 -225v-656zM420 348v410l41 82l82 41h143l82 -41l41 -82v-410l-41 -82l-82 -41h-143 l-82 41z" />
<glyph unicode="&#xf1;" d="M113 1014l71 -144v-706l-41 -164h349l-41 164v573l51 103l82 41h92l82 -41l41 -82v-594l-41 -164h348l-41 164v737l-205 205h-235l-185 -92l-20 102zM338 1290l51 -51l41 82l82 41l184 -92h113l82 82l41 123l-51 51l-41 -82l-82 -41l-185 92h-112l-82 -82z" />
<glyph unicode="&#xf2;" d="M143 225l226 -225h491l225 225v656l-225 225h-491l-226 -225v-656zM369 1536l307 -307l51 20l-154 307l-122 62zM420 348v410l41 82l82 41h143l82 -41l41 -82v-410l-41 -82l-82 -41h-143l-82 41z" />
<glyph unicode="&#xf3;" d="M143 225l226 -225h491l225 225v656l-225 225h-491l-226 -225v-656zM420 348v410l41 82l82 41h143l82 -41l41 -82v-410l-41 -82l-82 -41h-143l-82 41zM502 1253l51 -20l307 303l-82 82l-123 -62z" />
<glyph unicode="&#xf4;" d="M143 225l226 -225h491l225 225v656l-225 225h-491l-226 -225v-656zM358 1249l52 -20l102 102l31 62l71 71l72 -71l31 -62l102 -102l51 20l-133 267l-123 122l-122 -122zM420 348v410l41 82l82 41h143l82 -41l41 -82v-410l-41 -82l-82 -41h-143l-82 41z" />
<glyph unicode="&#xf5;" d="M143 225l226 -225h491l225 225v656l-225 225h-491l-226 -225v-656zM317 1290l52 -51l41 82l82 41l184 -92h112l82 82l41 123l-51 51l-41 -82l-82 -41l-184 92h-113l-82 -82zM420 348v410l41 82l82 41h143l82 -41l41 -82v-410l-41 -82l-82 -41h-143l-82 41z" />
<glyph unicode="&#xf6;" d="M143 225l226 -225h491l225 225v656l-225 225h-491l-226 -225v-656zM297 1321l61 -61h113l61 61v113l-61 61h-113l-61 -61v-113zM420 348v410l41 82l82 41h143l82 -41l41 -82v-410l-41 -82l-82 -41h-143l-82 41zM696 1321l62 -61h112l62 61v113l-62 61h-112l-62 -61v-113z " />
<glyph unicode="&#xf7;" horiz-adv-x="1802" d="M102 717l82 -82v-635h635l82 -82l82 82h635v635l82 82l-82 82v635h-635l-82 82l-82 -82h-635v-635zM184 717l164 164h82v123l-123 307l307 -123h123v82l164 164l164 -164v-82h123l307 123l-123 -307v-123h82l164 -164l-164 -164h-82v-123l123 -307l-307 123h-123v-82 l-164 -164l-164 164v82h-123l-307 -123l123 307v123h-82zM614 430l287 143l287 -143l-144 287l144 287l-287 -144l-287 144l144 -287z" />
<glyph unicode="&#xf8;" d="M143 225l174 -174l-67 -133h98l41 82h471l225 225v656l-174 174l68 133h-98l-41 -82h-471l-226 -225v-656zM420 344v414l41 82l82 41h143l35 -17l-281 -561zM508 242l280 561l21 -41v-414l-41 -82l-82 -41h-143z" />
<glyph unicode="&#xf9;" d="M92 1014l72 -144v-665l205 -205h256l163 82l31 -82h266l-41 164v962l-337 -112l71 -144v-501l-51 -103l-82 -41h-92l-82 41l-41 82v778zM369 1536l307 -307l51 20l-154 307l-122 62z" />
<glyph unicode="&#xfa;" d="M92 1014l72 -144v-665l205 -205h256l163 82l31 -82h266l-41 164v962l-337 -112l71 -144v-501l-51 -103l-82 -41h-92l-82 41l-41 82v778zM512 1249l51 -20l307 307l-82 82l-122 -62z" />
<glyph unicode="&#xfb;" d="M92 1014l72 -144v-665l205 -205h256l163 82l31 -82h266l-41 164v962l-337 -112l71 -144v-501l-51 -103l-82 -41h-92l-82 41l-41 82v778zM338 1249l51 -20l103 102l30 62l72 71l72 -71l30 -62l103 -102l51 20l-133 267l-123 122l-123 -122z" />
<glyph unicode="&#xfc;" d="M92 1014l72 -144v-665l205 -205h256l163 82l31 -82h266l-41 164v962l-337 -112l71 -144v-501l-51 -103l-82 -41h-92l-82 41l-41 82v778zM276 1321l62 -61h113l61 61v113l-61 61h-113l-62 -61v-113zM676 1321l61 -61h113l61 61v113l-61 61h-113l-61 -61v-113z" />
<glyph unicode="&#xfd;" horiz-adv-x="983" d="M-20 1106l81 -164l297 -881l-215 -430h215l185 185l379 1126l82 164h-349l21 -164l-164 -491l-10 -62l-10 62l-164 491l20 164h-368zM399 1208l52 -20l307 307l-82 82l-123 -61z" />
<glyph unicode="&#xfe;" horiz-adv-x="1259" d="M143 -369h349l-41 164v277l143 -72h297l225 225v656l-225 225h-287l-164 -82v451h-297l41 -164v-1516zM451 369v368l51 103l82 41h133l82 -41l41 -82v-410l-41 -82l-82 -41h-133l-82 41z" />
<glyph unicode="&#xff;" horiz-adv-x="983" d="M-20 1106l81 -164l297 -881l-215 -430h215l185 185l379 1126l82 164h-349l21 -164l-164 -491l-10 -62l-10 62l-164 491l20 164h-368zM174 1321l62 -61h112l62 61v113l-62 61h-112l-62 -61v-113zM573 1321l62 -61h113l61 61v113l-61 61h-113l-62 -61v-113z" />
<glyph unicode="&#x152;" horiz-adv-x="1822" d="M164 266l266 -266h1270l112 338l-215 -72h-358l-31 31v338l21 20h174l153 -51v348l-153 -51h-174l-21 21v245l21 21h368l185 -62l-103 308h-1249l-266 -267v-901zM492 389v676l40 82l82 41h164l82 -41l41 -82v-676l-41 -82l-82 -41h-164l-82 41z" />
<glyph unicode="&#x153;" horiz-adv-x="1802" d="M143 225l226 -225h471l102 102l102 -102h529l96 287l-178 -62h-262l-103 51l-51 103v113h625v389l-225 225h-431l-102 -102l-102 102h-471l-226 -225v-656zM420 348v410l41 82l82 41h133l82 -41l41 -82v-410l-41 -82l-82 -41h-133l-82 41zM1075 676v102l41 82l82 41h113 l82 -41l41 -82v-102h-359z" />
<glyph unicode="&#x178;" horiz-adv-x="1064" d="M-92 1434l112 -164l369 -707v-379l-61 -184h430l-62 184v400l338 686l113 164h-379l-20 -144l-195 -389l-10 -41l-11 41l-194 389l-21 144h-409zM236 1649l61 -62h113l61 62v112l-61 62h-113l-61 -62v-112zM635 1649l61 -62h113l61 62v112l-61 62h-113l-61 -62v-112z" />
<glyph unicode="&#x2c6;" d="M358 1249l52 -20l102 102l31 62l71 71l72 -71l31 -62l102 -102l51 20l-133 267l-123 122l-122 -122z" />
<glyph unicode="&#x2dc;" d="M317 1290l52 -51l41 82l82 41l184 -92h112l82 82l41 123l-51 51l-41 -82l-82 -41l-184 92h-113l-82 -82z" />
<glyph unicode="&#x2000;" horiz-adv-x="983" />
<glyph unicode="&#x2001;" horiz-adv-x="1966" />
<glyph unicode="&#x2002;" horiz-adv-x="983" />
<glyph unicode="&#x2003;" horiz-adv-x="1966" />
<glyph unicode="&#x2004;" horiz-adv-x="655" />
<glyph unicode="&#x2005;" horiz-adv-x="491" />
<glyph unicode="&#x2006;" horiz-adv-x="327" />
<glyph unicode="&#x2007;" horiz-adv-x="327" />
<glyph unicode="&#x2008;" horiz-adv-x="245" />
<glyph unicode="&#x2009;" horiz-adv-x="393" />
<glyph unicode="&#x200a;" horiz-adv-x="109" />
<glyph unicode="&#x2010;" horiz-adv-x="737" d="M82 573h573v226h-573v-226z" />
<glyph unicode="&#x2011;" horiz-adv-x="737" d="M82 573h573v226h-573v-226z" />
<glyph unicode="&#x2012;" horiz-adv-x="737" d="M82 573h573v226h-573v-226z" />
<glyph unicode="&#x2013;" horiz-adv-x="942" d="M20 614h902v164h-902v-164z" />
<glyph unicode="&#x2014;" horiz-adv-x="1433" d="M20 614h1393v164h-1393v-164z" />
<glyph unicode="&#x2018;" horiz-adv-x="593" d="M123 1044l82 -81h205l82 81v185l-82 82h-113v51l51 102l103 52l30 61h-82l-184 -92l-92 -185v-256z" />
<glyph unicode="&#x2019;" horiz-adv-x="593" d="M102 1270l82 -82h113v-51l-51 -103l-103 -51l-30 -61h82l184 92l92 184v256l-82 82h-205l-82 -82v-184z" />
<glyph unicode="&#x201a;" horiz-adv-x="593" d="M102 82l82 -82h113v-51l-51 -103l-103 -51l-30 -61h82l184 92l92 184v256l-82 82h-205l-82 -82v-184z" />
<glyph unicode="&#x201c;" horiz-adv-x="1105" d="M123 1044l82 -81h205l82 81v185l-82 82h-113v51l51 102l103 52l30 61h-82l-184 -92l-92 -185v-256zM655 1044l82 -81h205l82 81v185l-82 82h-113v51l52 102l102 52l31 61h-82l-184 -92l-93 -185v-256z" />
<glyph unicode="&#x201d;" horiz-adv-x="1105" d="M102 1270l82 -82h113v-51l-51 -103l-103 -51l-30 -61h82l184 92l92 184v256l-82 82h-205l-82 -82v-184zM635 1270l82 -82h112v-51l-51 -103l-102 -51l-31 -61h82l184 92l93 184v256l-82 82h-205l-82 -82v-184z" />
<glyph unicode="&#x201e;" horiz-adv-x="1105" d="M102 82l82 -82h113v-51l-51 -103l-103 -51l-30 -61h82l184 92l92 184v256l-82 82h-205l-82 -82v-184zM635 82l82 -82h112v-51l-51 -103l-102 -51l-31 -61h82l184 92l93 184v256l-82 82h-205l-82 -82v-184z" />
<glyph unicode="&#x2022;" horiz-adv-x="1064" d="M184 532l164 -163h369l164 163v369l-164 164h-369l-164 -164v-369z" />
<glyph unicode="&#x2026;" horiz-adv-x="2457" d="M205 82l82 -82h225l82 82v225l-82 82h-225l-82 -82v-225zM1034 82l82 -82h225l82 82v225l-82 82h-225l-82 -82v-225zM1864 82l82 -82h225l82 82v225l-82 82h-225l-82 -82v-225z" />
<glyph unicode="&#x202f;" horiz-adv-x="393" />
<glyph unicode="&#x2039;" horiz-adv-x="450" d="M41 614l61 -61l205 -410l82 82l-123 369v41l123 369l-82 81l-205 -409z" />
<glyph unicode="&#x203a;" horiz-adv-x="450" d="M61 225l82 -82l205 410l62 61l-62 62l-205 409l-82 -81l123 -369v-41z" />
<glyph unicode="&#x205f;" horiz-adv-x="491" />
<glyph unicode="&#x2122;" horiz-adv-x="1187" d="M-4 1503l86 29h74l8 -8v-385l-25 -74h172l-24 74v385l8 8h74l86 -29l-45 135h-369zM526 1065h142l-17 65v295l-4 33l12 -33l140 -319l139 319l12 33l-4 -33v-295l-16 -65h151l-16 65v443l16 65h-157l-115 -260l-4 -18l-4 18l-115 260h-160l17 -65v-443z" />
<glyph unicode="&#x25fc;" horiz-adv-x="1105" d="M0 0v1106h1106v-1106h-1106z" />
</font>
</defs>
</svg>
